<svg width="100" height="100" viewBox="0 0 100 100" fill="none" xmlns="http://www.w3.org/2000/svg">
<g clip-path="url(#clip0)">
<path d="M7.77785 6.99402C4.47874 12.0519 12.5996 17.6156 14.8836 21.409C17.1676 25.2024 13.1072 34.0536 12.3459 37.3413C11.5845 40.6289 6.0014 44.1694 7.77785 47.2041C12.3459 50.2388 9.284 58.3837 17.4049 64.2002" stroke="black" stroke-width="3" stroke-linecap="round" stroke-linejoin="round"/>
<path d="M10.0619 3.70641C14.1223 1.93615 20.9743 3.95931 23.0045 4.71799C27.268 2.29021 34.4246 3.03203 37.4699 3.70641C44.5757 5.93188 46.6905 14.7494 46.8597 18.88C49.6512 21.3247 54.6253 26.9221 52.189 29.7545C50.9862 31.1528 47.7645 33.1429 44.3219 34.3692M35.4397 20.6503C34.8475 20.0602 33.6125 21.0549 33.4094 29.7545C33.2559 36.334 39.0481 36.2478 44.3219 34.3692M44.3219 34.3692C48.2132 37.5516 56.554 45.9902 58.7873 54.2852C61.5788 64.6538 77.5668 71.4819 68.177 83.3679C60.6652 92.8767 52.9504 93.3994 43.8143 92.725M45.5908 43.6636C42.0379 48.9744 41.0228 47.7099 35.9472 45.9397C30.8717 53.2736 31.8868 51.7562 25.0348 48.4686C21.4819 56.0554 17.6752 52.0091 16.1525 50.2388M26.5574 63.4416C27.3188 72.5458 29.0952 85.6439 26.5574 89.1845C24.0197 92.725 15.3912 88.9316 15.1374 94.2423C14.8836 99.5531 27.065 98.2886 30.1103 96.2655C33.1557 94.2423 34.6783 95.2539 37.4699 90.9547C39.7031 87.5154 38.4004 75.0747 37.4699 66.2234M18.6738 68.2466C19.6889 75.0747 20.4668 85.6439 17.6752 86.4026C14.8836 87.1613 7.2703 86.6555 8.03164 89.9431" stroke="black" stroke-width="3" stroke-linecap="round" stroke-linejoin="round"/>
<path d="M70.9983 55.808C72.0134 66.9353 83.4335 69.97 76.3277 80.0858C76.8352 81.2659 79.17 82.3112 84.4486 77.051C91.0468 70.4758 77.8503 60.3601 89.7779 57.5782C101.705 54.7964 93.5846 43.1633 89.7779 38.1054C85.9712 33.0476 69.9832 44.6807 70.9983 55.808Z" stroke="black" stroke-width="3" stroke-linecap="round" stroke-linejoin="round"/>
</g>
<defs>
<clipPath id="clip0">
<rect width="100" height="100" fill="white"/>
</clipPath>
</defs>
</svg>
