<svg width="93" height="99" viewBox="0 0 93 99" fill="none" xmlns="http://www.w3.org/2000/svg">
<path d="M2.77785 5.99404C-0.521262 11.0519 7.59964 16.6156 9.88364 20.409C12.1676 24.2024 8.10719 33.0537 7.34586 36.3413C6.58452 39.6289 1.0014 43.1694 2.77785 46.2041C7.34586 49.2389 4.284 57.3837 12.4049 63.2003M5.06186 2.70641C9.1223 0.936153 15.9743 2.95931 18.0045 3.71799C22.268 1.29021 29.4246 2.03203 32.4699 2.70641C39.5757 4.93188 41.6905 13.7494 41.8597 17.88C44.6512 20.3247 49.6253 25.9221 47.189 28.7545C45.9862 30.1528 42.7645 32.1429 39.3219 33.3692M30.4397 19.6503C29.8475 19.0602 28.6125 20.0549 28.4094 28.7545C28.2559 35.334 34.0481 35.2478 39.3219 33.3692M39.3219 33.3692C43.2132 36.5516 51.554 44.9902 53.7872 53.2852C56.5788 63.6538 72.5668 70.4819 63.177 82.3679C55.6652 91.8767 47.9504 92.3993 38.8143 91.725M40.5908 42.6636C37.0379 47.9744 36.0228 46.7099 30.9472 44.9397C25.8717 52.2736 26.8868 50.7562 20.0348 47.4686C16.4819 55.0554 12.6752 51.0091 11.1525 49.2388M21.5574 62.4416C22.3188 71.5458 24.0952 84.6439 21.5574 88.1845C19.0197 91.725 10.3912 87.9316 10.1374 93.2423C9.88364 98.5531 22.065 97.2886 25.1103 95.2655C28.1557 93.2423 29.6783 94.2539 32.4699 89.9547C34.7031 86.5154 33.4004 74.0747 32.4699 65.2234M13.6738 67.2466C14.6889 74.0747 15.4668 84.6439 12.6752 85.4026C9.88364 86.1613 2.2703 85.6555 3.03163 88.9431M71.3277 79.0858C78.4335 68.97 67.0134 65.9353 65.9983 54.808C64.9832 43.6807 80.9712 32.0476 84.7779 37.1054C88.5846 42.1633 96.7055 53.7964 84.7779 56.5782C72.8503 59.3601 86.0468 69.4758 79.4486 76.051C74.17 81.3112 71.8352 80.2659 71.3277 79.0858Z" stroke="black" stroke-width="3" stroke-linecap="round" stroke-linejoin="round"/>
</svg>
